<?xml version="1.0" encoding="utf-8"?>
<!-- Generator: Adobe Illustrator 25.4.1, SVG Export Plug-In . SVG Version: 6.00 Build 0)  -->
<svg version="1.1" id="Layer_1" xmlns="http://www.w3.org/2000/svg" xmlns:xlink="http://www.w3.org/1999/xlink" x="0px" y="0px"
	 viewBox="0 0 1080 540" style="enable-background:new 0 0 1080 540;" xml:space="preserve">
<style type="text/css">
	.st0{fill:#1B1F28;}
	.st1{fill:#FAFAFC;}
</style>
<g>
	<path class="st1" d="M479.36,181.91h144.09l-5.25,24.22H500.21l-12.65,60h109.11L591.84,289H482.72l-14.26,67h120.01l-4.98,23.54
		H437.39L479.36,181.91z"/>
	<path class="st1" d="M711.04,292.23c5.74-0.72,10-3.05,12.78-7c1.52-2.15,2.69-5.25,3.5-9.28c1.79-8.25,0.13-14.24-4.98-17.96
		c-5.11-3.72-13.14-5.58-24.08-5.58c-12.65,0-22.33,3.41-29.06,10.23c-3.77,3.77-6.86,9.37-9.28,16.82h-22.6
		c4.21-17.76,12.6-30.11,25.16-37.07c12.56-6.95,26.15-10.43,40.77-10.43c16.95,0,30,3.23,39.15,9.69
		c9.15,6.46,12.29,16.5,9.42,30.14l-17.62,83.01c-0.54,2.51-0.47,4.53,0.2,6.05c0.67,1.53,2.67,2.29,5.99,2.29
		c1.08,0,2.31-0.07,3.7-0.2c1.39-0.13,2.89-0.34,4.51-0.61l-3.9,17.89c-3.95,1.08-6.93,1.75-8.95,2.02s-4.73,0.4-8.14,0.4
		c-8.34,0-13.77-2.96-16.28-8.88c-1.35-3.14-1.8-7.58-1.35-13.32c-6.37,6.46-14.67,12.06-24.89,16.82
		c-10.22,4.75-20.9,7.13-32.02,7.13c-13.37,0-23.43-4.06-30.2-12.18c-6.77-8.12-8.86-18.27-6.26-30.47
		c2.87-13.36,9.26-23.72,19.17-31.08c9.91-7.35,21.82-11.88,35.72-13.59L711.04,292.23z M663.01,363.81c8.52,0,17.22-1.97,26.1-5.92
		c14.8-6.55,23.81-17.27,27.04-32.15l4.04-19.51c-3.32,1.88-7.45,3.45-12.38,4.71c-4.93,1.26-9.69,2.15-14.26,2.69l-15.07,1.88
		c-9.06,1.17-16.06,3.01-20.99,5.52c-8.34,4.22-13.5,10.94-15.47,20.18c-1.53,7-0.16,12.51,4.1,16.55
		C650.38,361.79,656.01,363.81,663.01,363.81z"/>
	<path class="st1" d="M792.57,334.34c-0.99,8.07-0.27,14.26,2.15,18.57c4.39,7.8,14.13,11.71,29.19,11.71
		c8.97,0,17.29-1.95,24.96-5.85c7.67-3.9,12.35-9.93,14.06-18.1c1.34-6.19-0.4-10.9-5.25-14.13c-3.05-1.97-9.46-4.26-19.24-6.86
		l-18.16-4.84c-11.66-3.05-20-6.46-25.02-10.23c-9.06-6.55-12.33-15.61-9.82-27.18c2.87-13.63,10.11-24.66,21.73-33.1
		c11.61-8.43,25.72-12.65,42.31-12.65c21.7,0,36.01,6.37,42.92,19.1c4.3,8.07,5.38,16.77,3.23,26.1h-22.87
		c0.72-5.47-0.18-10.45-2.69-14.93c-4.22-6.37-13.18-9.55-26.91-9.55c-9.15,0-16.44,1.75-21.86,5.25
		c-5.43,3.5-8.77,8.12-10.02,13.86c-1.35,6.28,0.67,11.3,6.05,15.07c3.14,2.24,8.03,4.22,14.66,5.92l15.2,3.9
		c16.5,4.22,27.31,8.3,32.42,12.24c8.07,6.19,10.67,15.92,7.8,29.19c-2.69,12.83-9.89,23.9-21.59,33.23
		c-11.71,9.33-27.51,13.99-47.43,13.99c-21.44,0-35.59-4.87-42.45-14.6c-6.86-9.73-9.08-21.77-6.66-36.12H792.57z"/>
	<path class="st1" d="M1043.75,258.06c3.32,7.27,4.75,15.74,4.31,25.43c0.09,6.64-1.44,17.22-4.57,31.75H937.87
		c-2.69,14.62-1.73,26.35,2.89,35.18c4.62,8.84,13.7,13.25,27.24,13.25c12.65,0,23.59-4.17,32.83-12.51
		c5.38-4.84,9.64-10.45,12.78-16.82h23.81c-1.79,5.29-5.13,11.19-10.02,17.69c-4.89,6.5-9.98,11.82-15.27,15.94
		c-8.88,7.18-19.02,12.02-30.41,14.53c-6.19,1.43-12.96,2.15-20.32,2.15c-17.94,0-31.75-6.52-41.44-19.58s-12.02-31.32-7-54.82
		c4.93-23.14,15.2-41.93,30.81-56.37c15.61-14.44,33.54-21.66,53.82-21.66c10.22,0,19.64,2.4,28.25,7.2
		C1034.47,244.22,1040.43,250.43,1043.75,258.06z M1022.63,296c1.25-10.49,0.76-18.88-1.48-25.16
		c-4.13-11.66-13.95-17.49-29.46-17.49c-11.12,0-21.3,4.02-30.54,12.04c-9.24,8.03-15.43,18.23-18.57,30.61H1022.63z"/>
</g>
<g>
	<path class="st1" d="M246.3,322.62V217.16H140.63v105.67h105.63l108.45,108.79H141.39c-60.48,0-109.53-49.04-109.53-109.53V217.32
		h108.75L31.99,108.39h213.55c60.5,0,109.53,49.04,109.53,109.53v104.71H246.3z"/>
</g>
</svg>
