<?xml version="1.0" encoding="utf-8"?>
<!-- Generator: Adobe Illustrator 25.4.1, SVG Export Plug-In . SVG Version: 6.00 Build 0)  -->
<svg version="1.1" id="Layer_1" xmlns="http://www.w3.org/2000/svg" xmlns:xlink="http://www.w3.org/1999/xlink" x="0px" y="0px"
	 viewBox="0 0 1080 1080" style="enable-background:new 0 0 1080 1080;" xml:space="preserve">
<style type="text/css">
	.st0{fill:#1B1F28;}
	.st1{fill:#FAFAFC;}
</style>
<path class="st1" d="M653.32,450.76V278.33H480.56v172.76h172.7l177.31,177.86H481.8c-98.89,0-179.06-80.18-179.06-179.06V278.6
	h177.8L302.94,100.5h349.14c98.92,0,179.06,80.18,179.06,179.07v171.19H653.32z"/>
<g>
	<path class="st1" d="M164.34,689.76h205.5l-7.48,34.54H194.08l-18.04,85.58h155.62l-6.91,32.62H169.13l-20.34,95.56h171.15
		l-7.1,33.58H104.47L164.34,689.76z"/>
	<path class="st1" d="M494.76,847.1c8.18-1.02,14.26-4.35,18.23-9.98c2.18-3.07,3.84-7.49,4.99-13.24
		c2.56-11.77,0.19-20.3-7.1-25.61c-7.29-5.31-18.74-7.97-34.35-7.97c-18.04,0-31.85,4.87-41.44,14.58
		c-5.37,5.37-9.79,13.37-13.24,23.99H389.6c6.01-25.33,17.97-42.95,35.88-52.86c17.91-9.91,37.29-14.87,58.14-14.87
		c24.18,0,42.79,4.6,55.84,13.81c13.05,9.21,17.52,23.54,13.43,42.98l-25.14,118.39c-0.77,3.58-0.67,6.46,0.29,8.64
		c0.96,2.18,3.8,3.26,8.54,3.26c1.53,0,3.29-0.09,5.28-0.29c1.98-0.19,4.12-0.48,6.42-0.86l-5.56,25.52
		c-5.63,1.54-9.88,2.5-12.76,2.88c-2.88,0.38-6.75,0.58-11.61,0.58c-11.89,0-19.64-4.22-23.21-12.67c-1.92-4.47-2.56-10.81-1.92-19
		c-9.08,9.21-20.91,17.21-35.5,23.99s-29.81,10.17-45.67,10.17c-19.06,0-33.42-5.79-43.08-17.37c-9.66-11.58-12.64-26.06-8.93-43.46
		c4.09-19.06,13.21-33.83,27.34-44.32c14.14-10.48,31.12-16.95,50.95-19.38L494.76,847.1z M426.25,949.18
		c12.15,0,24.56-2.81,37.22-8.44c21.11-9.34,33.96-24.62,38.57-45.86l5.76-27.82c-4.73,2.68-10.62,4.92-17.65,6.71
		c-7.04,1.79-13.82,3.07-20.34,3.84l-21.49,2.69c-12.92,1.66-22.9,4.29-29.93,7.86c-11.89,6.02-19.25,15.61-22.06,28.78
		c-2.18,9.98-0.23,17.85,5.85,23.6C408.25,946.3,416.28,949.18,426.25,949.18z"/>
	<path class="st1" d="M611.03,907.16c-1.41,11.51-0.38,20.34,3.07,26.48c6.26,11.13,20.15,16.7,41.64,16.7
		c12.79,0,24.66-2.78,35.6-8.35c10.94-5.57,17.62-14.17,20.05-25.81c1.92-8.83-0.58-15.54-7.48-20.15
		c-4.35-2.81-13.5-6.08-27.44-9.79l-25.9-6.91c-16.63-4.35-28.53-9.21-35.69-14.58c-12.92-9.33-17.59-22.26-14.01-38.76
		c4.09-19.44,14.42-35.18,30.99-47.2c16.56-12.02,36.68-18.04,60.34-18.04c30.96,0,51.36,9.09,61.21,27.25
		c6.14,11.51,7.67,23.92,4.61,37.22h-32.62c1.02-7.8-0.26-14.9-3.84-21.3c-6.01-9.08-18.8-13.62-38.37-13.62
		c-13.05,0-23.44,2.5-31.18,7.49c-7.74,4.99-12.5,11.58-14.3,19.76c-1.92,8.96,0.96,16.12,8.64,21.49
		c4.48,3.2,11.45,6.02,20.91,8.44l21.69,5.56c23.53,6.02,38.95,11.84,46.24,17.46c11.51,8.82,15.22,22.71,11.13,41.64
		c-3.83,18.29-14.1,34.09-30.79,47.4c-16.7,13.3-39.24,19.96-67.64,19.96c-30.57,0-50.75-6.94-60.54-20.82
		c-9.79-13.88-12.95-31.05-9.5-51.52H611.03z"/>
	<path class="st1" d="M969.28,798.36c4.73,10.36,6.78,22.45,6.14,36.26c0.12,9.47-2.05,24.56-6.52,45.28H818.26
		c-3.84,20.85-2.46,37.58,4.13,50.18c6.59,12.6,19.54,18.9,38.85,18.9c18.03,0,33.64-5.95,46.82-17.84
		c7.68-6.91,13.75-14.9,18.23-23.99h33.96c-2.56,7.55-7.32,15.96-14.3,25.23c-6.97,9.27-14.23,16.85-21.77,22.74
		c-12.67,10.23-27.12,17.14-43.37,20.72c-8.83,2.04-18.49,3.07-28.97,3.07c-25.59,0-45.28-9.3-59.1-27.92
		c-13.82-18.61-17.14-44.67-9.98-78.19c7.03-33,21.68-59.8,43.94-80.4c22.26-20.59,47.84-30.89,76.75-30.89
		c14.58,0,28.02,3.42,40.3,10.26C956.04,778.63,964.54,787.49,969.28,798.36z M939.15,852.47c1.79-14.97,1.08-26.93-2.11-35.88
		c-5.88-16.63-19.89-24.94-42.02-24.94c-15.87,0-30.38,5.73-43.56,17.17c-13.18,11.45-22,26-26.48,43.65H939.15z"/>
</g>
</svg>
